Coordinates
version=1
nRows=49
nColumns=12
inDegrees=yes

Units are S.I. units (second, meters, Newtons, ...)
Angles are in degrees

endheader
time	SC_y	SC_z	SC_x	AC_y	AC_z	AC_x	GH_y	GH_z	GH_yy	EL_x	PS_y
       0.0              -36.12           6.05          32.53          50.24         -6.247         -6.507          7.576          35.46         -154.5          79.81          41.37
   0.03101              -36.12          6.049          32.52          50.24         -6.246         -6.504          7.567          35.46         -154.5           79.8          41.37
   0.06203              -36.12          6.048          32.52          50.24         -6.246         -6.501          7.559          35.47         -154.5           79.8          41.37
   0.09304              -36.12          6.046          32.51          50.24         -6.244         -6.498           7.55          35.48         -154.4          79.79          41.37
    0.1241              -36.12          6.044          32.51          50.24         -6.243         -6.494           7.54          35.48         -154.4          79.79          41.37
    0.1551              -36.12          6.043           32.5          50.23         -6.242          -6.49          7.529          35.49         -154.4          79.78          41.37
    0.1861              -36.12          6.041          32.49          50.23         -6.241         -6.486          7.518           35.5         -154.4          79.77          41.37
    0.2171              -36.12          6.039          32.49          50.23          -6.24         -6.482          7.506          35.51         -154.3          79.77          41.37
    0.2481              -36.12          6.037          32.48          50.23         -6.238         -6.477          7.493          35.52         -154.3          79.76          41.36
    0.2791              -36.12          6.035          32.47          50.22         -6.237         -6.472           7.48          35.53         -154.3          79.75          41.36
    0.3101              -36.12          6.032          32.46          50.22         -6.235         -6.467          7.465          35.54         -154.2          79.74          41.36
    0.3412              -36.12           6.03          32.45          50.22         -6.233         -6.461          7.449          35.55         -154.2          79.73          41.36
    0.3722              -36.13          6.027          32.44          50.21         -6.231         -6.455          7.432          35.56         -154.2          79.72          41.36
    0.4032              -36.13          6.024          32.43          50.21         -6.229         -6.448          7.413          35.58         -154.1          79.71          41.36
    0.4342              -36.13           6.02          32.42          50.21         -6.227         -6.441          7.393          35.59         -154.1           79.7          41.36
    0.4652              -36.13          6.017          32.41           50.2         -6.225         -6.433          7.372          35.61         -154.0          79.68          41.35
    0.4962              -36.13          6.013           32.4           50.2         -6.222         -6.424          7.348          35.63         -154.0          79.67          41.35
    0.5272              -36.13          6.009          32.38          50.19         -6.219         -6.415          7.322          35.65         -153.9          79.65          41.35
    0.5583              -36.13          6.004          32.36          50.19         -6.216         -6.405          7.294          35.67         -153.8          79.64          41.35
    0.5893              -36.13          5.999          32.35          50.18         -6.213         -6.393          7.264          35.69         -153.8          79.62          41.35
    0.6203              -36.13          5.994          32.33          50.17         -6.209         -6.381           7.23          35.72         -153.7           79.6          41.34
    0.6513              -36.13          5.988          32.31          50.17         -6.205         -6.368          7.193          35.75         -153.6          79.58          41.34
    0.6823              -36.13          5.981          32.28          50.16           -6.2         -6.353          7.152          35.78         -153.5          79.55          41.34
    0.7133              -36.14          5.973          32.26          50.15         -6.195         -6.336          7.106          35.81         -153.4          79.52          41.33
    0.7443              -36.14          5.965          32.23          50.14         -6.189         -6.318          7.056          35.85         -153.3          79.49          41.33
    0.7754              -36.14          5.956           32.2          50.13         -6.183         -6.297            7.0          35.89         -153.1          79.46          41.32
    0.8064              -36.14          5.946          32.16          50.11         -6.176         -6.274          6.936          35.94         -153.0          79.42          41.32
    0.8374              -36.14          5.934          32.12           50.1         -6.168         -6.248          6.865          35.99         -152.8          79.38          41.31
    0.8684              -36.15          5.921          32.07          50.08         -6.159         -6.219          6.785          36.05         -152.6          79.33          41.31
    0.8994              -36.15          5.906          32.02          50.06         -6.149         -6.186          6.694          36.12         -152.4          79.27           41.3
    0.9304              -36.15          5.889          31.96          50.04         -6.137         -6.148           6.59           36.2         -152.1          79.21          41.29
    0.9614              -36.16          5.869          31.89          50.02         -6.124         -6.104          6.471          36.29         -151.9          79.13          41.28
    0.9925              -36.16          5.847          31.81          49.99         -6.109         -6.054          6.333          36.39         -151.5          79.05          41.27
     1.023              -36.17           5.82          31.72          49.96         -6.091         -5.995          6.173          36.51         -151.1          78.95          41.26
     1.054              -36.17           5.79          31.61          49.92          -6.07         -5.927          5.986          36.66         -150.7          78.84          41.24
     1.086              -36.18          5.753          31.49          49.88         -6.045         -5.847          5.765          36.82         -150.2           78.7          41.22
     1.117              -36.19           5.71          31.34          49.82         -6.016         -5.751          5.503          37.02         -149.5          78.54           41.2
     1.148               -36.2          5.659          31.16          49.76         -5.981         -5.636          5.188          37.26         -148.8          78.35          41.17
     1.179              -36.21          5.596          30.94          49.68         -5.939         -5.497          4.808          37.55         -147.9          78.12          41.14
      1.21              -36.23           5.52          30.67          49.59         -5.887         -5.328          4.343           37.9         -146.8          77.84           41.1
     1.241              -36.25          5.426          30.34          49.47         -5.823         -5.118          3.769          38.33         -145.4          77.49          41.06
     1.272              -36.27          5.309          29.93          49.33         -5.743         -4.857          3.054          38.87         -143.7          77.05           41.0
     1.303               -36.3          5.161          29.41          49.15         -5.643         -4.528          2.153          39.55         -141.5           76.5          40.92
     1.334              -36.34          4.973          28.75          48.92         -5.515          -4.11          1.008          40.41         -138.8           75.8          40.83
     1.365              -36.39          4.733          27.91          48.62         -5.351         -3.575        -0.4585          41.52         -135.2          74.91          40.71
     1.396              -36.45          4.424          26.83          48.24         -5.142         -2.889          -2.34          42.94         -130.7          73.76          40.55
     1.427              -36.53           4.03          25.45          47.75         -4.873         -2.011         -4.743          44.75         -125.0          72.29          40.36
     1.458              -36.63          3.535          23.71          47.14         -4.536        -0.9086         -7.765          47.03         -117.7          70.45          40.11
     1.489              -36.75          2.931           21.6           46.4         -4.126         0.4354         -11.45          49.81         -108.9           68.2           39.8
